<?xml version="1.0" encoding="utf-8"?>
<!-- Generator: Adobe Illustrator 22.0.1, SVG Export Plug-In . SVG Version: 6.00 Build 0)  -->
<svg version="1.1" id="Layer_1" xmlns="http://www.w3.org/2000/svg" xmlns:xlink="http://www.w3.org/1999/xlink" x="0px" y="0px"
	 viewBox="0 0 320 320" style="enable-background:new 0 0 320 320;" xml:space="preserve">
<style type="text/css">
	.st0{display:none;}
	.st1{display:inline;}
	.st2{fill:#FFFFFF;}
	.st3{display:inline;fill:#FFFFFF;}
</style>
<g class="st0">
	<rect id="_x31_9_11_" x="202.1" y="194.6" class="st1" width="9.4" height="6.9"/>
	<rect id="_x31_4_10_" x="192.8" y="160" class="st1" width="9.4" height="6.9"/>
	<rect id="_x35__9_" x="183.4" y="97.7" class="st1" width="9.4" height="6.9"/>
	<rect id="_x35__8_" x="174" y="97.7" class="st1" width="9.4" height="6.9"/>
	<rect id="_x31_8_7_" x="164.7" y="187.7" class="st1" width="9.4" height="6.9"/>
	<rect id="_x33__6_" x="155.3" y="83.8" class="st1" width="9.4" height="6.9"/>
	<rect id="_x31_9_5_" x="146" y="194.6" class="st1" width="9.4" height="6.9"/>
	<rect id="_x35__4_" x="136.6" y="97.7" class="st1" width="9.4" height="6.9"/>
	<rect id="_x31_3_3_" x="127.2" y="153.1" class="st1" width="9.4" height="6.9"/>
	<rect id="_x31_5_2_" x="117.9" y="166.9" class="st1" width="9.4" height="6.9"/>
	<rect id="_x38__1_" x="108.5" y="118.5" class="st1" width="9.4" height="6.9"/>
</g>
<path class="st2" d="M211.2,18.6H108.8c-9.9,0-18.1,8.1-18.1,18.1v246.8c0,9.9,8.1,18.1,18.1,18.1h102.4c9.9,0,18.1-8.1,18.1-18.1
	V36.6C229.3,26.7,221.1,18.6,211.2,18.6z M150.9,30H169c1.7,0,3,1.4,3,3c0,1.7-1.4,3-3,3h-18.1c-1.7,0-3-1.4-3-3
	C147.9,31.3,149.3,30,150.9,30z M160,290.7c-5,0-9-4-9-9s4-9,9-9s9,4,9,9S165,290.7,160,290.7z M222,268.3H98V51.7h124V268.3z"/>
<g class="st0">
	<path class="st3" d="M124.1,63.6h-14.7c-1.1,0-2,0.9-2,2v14.7c0,1.1,0.9,2,2,2h14.7c1.1,0,2-0.9,2-2V65.6
		C126.1,64.5,125.2,63.6,124.1,63.6z"/>
	<path class="st3" d="M153,63.6h-14.7c-1.1,0-2,0.9-2,2v14.7c0,1.1,0.9,2,2,2H153c1.1,0,2-0.9,2-2V65.6
		C155,64.5,154.1,63.6,153,63.6z"/>
	<path class="st3" d="M181.9,63.6h-14.7c-1.1,0-2,0.9-2,2v14.7c0,1.1,0.9,2,2,2h14.7c1.1,0,2-0.9,2-2V65.6
		C183.9,64.5,183,63.6,181.9,63.6z"/>
	<path class="st3" d="M210.8,63.6H196c-1.1,0-2,0.9-2,2v14.7c0,1.1,0.9,2,2,2h14.7c1.1,0,2-0.9,2-2V65.6
		C212.8,64.5,211.9,63.6,210.8,63.6z"/>
	<path class="st3" d="M124.1,97.3h-14.7c-1.1,0-2,0.9-2,2V114c0,1.1,0.9,2,2,2h14.7c1.1,0,2-0.9,2-2V99.3
		C126.1,98.2,125.2,97.3,124.1,97.3z"/>
	<path class="st3" d="M153,97.3h-14.7c-1.1,0-2,0.9-2,2V114c0,1.1,0.9,2,2,2H153c1.1,0,2-0.9,2-2V99.3C155,98.2,154.1,97.3,153,97.3
		z"/>
	<path class="st3" d="M181.9,97.3h-14.7c-1.1,0-2,0.9-2,2V114c0,1.1,0.9,2,2,2h14.7c1.1,0,2-0.9,2-2V99.3
		C183.9,98.2,183,97.3,181.9,97.3z"/>
	<path class="st3" d="M210.8,97.3H196c-1.1,0-2,0.9-2,2V114c0,1.1,0.9,2,2,2h14.7c1.1,0,2-0.9,2-2V99.3
		C212.8,98.2,211.9,97.3,210.8,97.3z"/>
	<path class="st3" d="M124.1,131h-14.7c-1.1,0-2,0.9-2,2v14.7c0,1.1,0.9,2,2,2h14.7c1.1,0,2-0.9,2-2V133
		C126.1,131.9,125.2,131,124.1,131z"/>
	<path class="st3" d="M153,131h-14.7c-1.1,0-2,0.9-2,2v14.7c0,1.1,0.9,2,2,2H153c1.1,0,2-0.9,2-2V133C155,131.9,154.1,131,153,131z"
		/>
	<path class="st3" d="M181.9,131h-14.7c-1.1,0-2,0.9-2,2v14.7c0,1.1,0.9,2,2,2h14.7c1.1,0,2-0.9,2-2V133
		C183.9,131.9,183,131,181.9,131z"/>
	<path class="st3" d="M210.8,131H196c-1.1,0-2,0.9-2,2v14.7c0,1.1,0.9,2,2,2h14.7c1.1,0,2-0.9,2-2V133
		C212.8,131.9,211.9,131,210.8,131z"/>
	<path class="st3" d="M124.1,164.7h-14.7c-1.1,0-2,0.9-2,2v14.7c0,1.1,0.9,2,2,2h14.7c1.1,0,2-0.9,2-2v-14.7
		C126.1,165.6,125.2,164.7,124.1,164.7z"/>
	<path class="st3" d="M153,164.7h-14.7c-1.1,0-2,0.9-2,2v14.7c0,1.1,0.9,2,2,2H153c1.1,0,2-0.9,2-2v-14.7
		C155,165.6,154.1,164.7,153,164.7z"/>
	<path class="st3" d="M181.9,164.7h-14.7c-1.1,0-2,0.9-2,2v14.7c0,1.1,0.9,2,2,2h14.7c1.1,0,2-0.9,2-2v-14.7
		C183.9,165.6,183,164.7,181.9,164.7z"/>
	<path class="st3" d="M210.8,164.7H196c-1.1,0-2,0.9-2,2v14.7c0,1.1,0.9,2,2,2h14.7c1.1,0,2-0.9,2-2v-14.7
		C212.8,165.6,211.9,164.7,210.8,164.7z"/>
	<path class="st3" d="M124.1,198.4h-14.7c-1.1,0-2,0.9-2,2v14.7c0,1.1,0.9,2,2,2h14.7c1.1,0,2-0.9,2-2v-14.7
		C126.1,199.3,125.2,198.4,124.1,198.4z"/>
	<path class="st3" d="M153,198.4h-14.7c-1.1,0-2,0.9-2,2v14.7c0,1.1,0.9,2,2,2H153c1.1,0,2-0.9,2-2v-14.7
		C155,199.3,154.1,198.4,153,198.4z"/>
	<path class="st3" d="M181.9,198.4h-14.7c-1.1,0-2,0.9-2,2v14.7c0,1.1,0.9,2,2,2h14.7c1.1,0,2-0.9,2-2v-14.7
		C183.9,199.3,183,198.4,181.9,198.4z"/>
	<path class="st3" d="M210.8,198.4H196c-1.1,0-2,0.9-2,2v14.7c0,1.1,0.9,2,2,2h14.7c1.1,0,2-0.9,2-2v-14.7
		C212.8,199.3,211.9,198.4,210.8,198.4z"/>
	<path class="st3" d="M124.1,243.8h-14.7c-1.1,0-2,0.9-2,2v14.7c0,1.1,0.9,2,2,2h14.7c1.1,0,2-0.9,2-2v-14.7
		C126.1,244.7,125.2,243.8,124.1,243.8z"/>
	<path class="st3" d="M153,243.8h-14.7c-1.1,0-2,0.9-2,2v14.7c0,1.1,0.9,2,2,2H153c1.1,0,2-0.9,2-2v-14.7
		C155,244.7,154.1,243.8,153,243.8z"/>
	<path class="st3" d="M181.9,243.8h-14.7c-1.1,0-2,0.9-2,2v14.7c0,1.1,0.9,2,2,2h14.7c1.1,0,2-0.9,2-2v-14.7
		C183.9,244.7,183,243.8,181.9,243.8z"/>
	<path class="st3" d="M210.8,243.8H196c-1.1,0-2,0.9-2,2v14.7c0,1.1,0.9,2,2,2h14.7c1.1,0,2-0.9,2-2v-14.7
		C212.8,244.7,211.9,243.8,210.8,243.8z"/>
</g>
</svg>
